<svg width="58" height="58" viewBox="0 0 58 58" fill="none" xmlns="http://www.w3.org/2000/svg">
<path d="M53.5129 24.2344H31.9328C30.9812 24.2344 30.2109 25.0047 30.2109 25.9563V32.8551C30.2109 33.8066 30.9812 34.577 31.9328 34.577H44.0879C42.7625 38.032 40.2703 40.9207 37.1098 42.7559L42.2867 51.7277C50.5902 46.9246 55.5066 38.4852 55.5066 29.0488C55.5066 27.7008 55.4047 26.7379 55.2121 25.6617C55.0535 24.8348 54.3398 24.2344 53.5129 24.2344Z" fill="#167EE6"/>
<path d="M29.0582 44.9293C23.1109 44.9293 17.9227 41.6781 15.1359 36.875L6.16406 42.0406C10.7293 49.959 19.282 55.2832 29.0582 55.2832C33.8613 55.2832 38.3812 53.9918 42.2895 51.7375V51.7262L37.1125 42.7543C34.7336 44.1363 31.9922 44.9293 29.0582 44.9293Z" fill="#12B347"/>
<path d="M42.2746 51.7332V51.7219L37.0977 42.75C34.7301 44.1207 31.9887 44.925 29.0547 44.925V55.2789C33.8578 55.2789 38.3777 53.9875 42.2746 51.7332Z" fill="#0F993E"/>
<path d="M12.9633 28.8336C12.9633 25.8996 13.7676 23.1582 15.1383 20.7906L6.16641 15.625C3.90078 19.5105 2.60938 24.0191 2.60938 28.8336C2.60938 33.648 3.90078 38.1566 6.16641 42.0422L15.1383 36.8766C13.7563 34.509 12.9633 31.7676 12.9633 28.8336Z" fill="#FFD500"/>
<path d="M29.0582 12.7289C32.9324 12.7289 36.5008 14.1109 39.2762 16.3992C39.9672 16.9656 40.9641 16.9203 41.5871 16.2973L46.4695 11.4148C47.1832 10.7012 47.1266 9.53438 46.3676 8.87734C41.7117 4.82188 35.6512 2.375 29.0582 2.375C19.282 2.375 10.7293 7.69922 6.16406 15.6176L15.1359 20.7832C17.9227 15.9801 23.1109 12.7289 29.0582 12.7289Z" fill="#FF4B26"/>
<path d="M39.2727 16.3992C39.9637 16.9656 40.9605 16.9203 41.5836 16.2973L46.466 11.4148C47.1797 10.7012 47.123 9.53438 46.3641 8.87734C41.7082 4.82188 35.6477 2.375 29.0547 2.375V12.7289C32.9289 12.7289 36.4973 14.0996 39.2727 16.3992Z" fill="#D93F21"/>
</svg>
