<svg width="100" height="100" viewBox="0 0 100 100" fill="none" xmlns="http://www.w3.org/2000/svg">
<g clip-path="url(#clip0_1500_24730)">
<rect width="100" height="100" rx="16" fill="#127FFF"/>
<path d="M-38.0084 -39.1563C-53.915 -22.6373 -50.6594 -5.08952 -50.6594 48.22C-50.6594 92.4899 -58.385 136.87 -17.9522 147.317C-5.3265 150.564 106.543 150.564 119.151 147.3C135.986 142.958 149.683 129.306 151.555 105.501C151.816 102.179 151.816 -5.67979 151.547 -9.0696C149.556 -34.4258 133.945 -49.0391 113.374 -51.9988C108.659 -52.6819 107.715 -52.8842 83.526 -52.9264C-2.27338 -52.8842 -21.0813 -56.7041 -38.0084 -39.1563Z" fill="url(#paint0_linear_1500_24730)"/>
<g clip-path="url(#clip1_1500_24730)">
<path d="M55.2534 37.75H44.2466C40.6643 37.75 37.75 40.6643 37.75 44.2466V55.2536C37.75 58.8357 40.6643 61.75 44.2466 61.75H55.2536C58.8357 61.75 61.75 58.8357 61.75 55.2536V44.2466C61.75 40.6643 58.8357 37.75 55.2534 37.75ZM49.75 56.3123C46.1315 56.3123 43.1877 53.3685 43.1877 49.75C43.1877 46.1315 46.1315 43.1877 49.75 43.1877C53.3685 43.1877 56.3123 46.1315 56.3123 49.75C56.3123 53.3685 53.3685 56.3123 49.75 56.3123ZM56.4692 44.7353C55.3999 44.7353 54.5301 43.8655 54.5301 42.7962C54.5301 41.7269 55.3999 40.8569 56.4692 40.8569C57.5385 40.8569 58.4085 41.7269 58.4085 42.7962C58.4085 43.8655 57.5385 44.7353 56.4692 44.7353Z" fill="white"/>
<path d="M49.7491 44.5938C46.9066 44.5938 44.5938 46.9064 44.5938 49.7491C44.5938 52.5916 46.9066 54.9044 49.7491 54.9044C52.5918 54.9044 54.9044 52.5916 54.9044 49.7491C54.9044 46.9064 52.5918 44.5938 49.7491 44.5938Z" fill="white"/>
<path d="M56.4696 42.2656C56.1763 42.2656 55.9375 42.5044 55.9375 42.7977C55.9375 43.0911 56.1763 43.3298 56.4696 43.3298C56.7631 43.3298 57.0019 43.0912 57.0019 42.7977C57.0019 42.5042 56.7631 42.2656 56.4696 42.2656Z" fill="white"/>
</g>
</g>
<defs>
<linearGradient id="paint0_linear_1500_24730" x1="-37.6202" y1="136.525" x2="150.473" y2="-26.3" gradientUnits="userSpaceOnUse">
<stop stop-color="#FFDD55"/>
<stop offset="0.5" stop-color="#FF543E"/>
<stop offset="1" stop-color="#C837AB"/>
</linearGradient>
<clipPath id="clip0_1500_24730">
<rect width="100" height="100" rx="16" fill="white"/>
</clipPath>
<clipPath id="clip1_1500_24730">
<rect width="24" height="24" fill="white" transform="translate(37.75 37.75)"/>
</clipPath>
</defs>
</svg>
