<svg width="56" height="56" viewBox="0 0 56 56" fill="none" xmlns="http://www.w3.org/2000/svg">
<g clip-path="url(#clip0_1522_23893)">
<path d="M31.857 31.1055C30.6576 31.576 29.3583 31.8433 27.9949 31.8433C26.6315 31.8433 25.3322 31.576 24.1328 31.1055V33.3745L27.9949 37.2366L31.857 33.3745V31.1055Z" fill="#127FFF"/>
<path d="M26.5938 41.0309L27.5498 42.4646H28.4475L29.4036 41.0309L27.9987 39.8594L26.5938 41.0309Z" fill="#127FFF"/>
<path d="M22.8559 34.8203L22.2266 34.9457L22.3067 35.9886C22.4477 37.8239 22.7027 39.6507 23.0615 41.4582L26.5704 38.5348L22.8559 34.8203Z" fill="#127FFF"/>
<path d="M24.8869 48.0397L25.9943 43.6109L25.1033 42.2734L23.5391 43.577C23.912 45.087 24.3674 46.5739 24.8869 48.0397Z" fill="#127FFF"/>
<path d="M31.1074 48.0397C31.6279 46.5739 32.0824 45.087 32.4553 43.577L30.891 42.2734L30 43.6109L31.1074 48.0397Z" fill="#127FFF"/>
<path d="M34.4705 11.5659L37.3487 11.5348C39.6333 9.70845 41.0698 7.10325 41.4215 4.2463L40.9161 4.41413C40.1335 4.67484 39.3184 4.80731 38.4929 4.80731C36.4284 4.80731 34.5304 4.02142 33.1043 2.59341C31.516 1.00512 29.4336 0.100418 27.2051 0C26.1688 0.0287581 25.1463 0.112204 24.1412 0.250808C22.7773 0.587891 21.5133 1.24367 20.4375 2.1842L22.9654 8.92632C26.538 10.6494 30.5052 11.5659 34.4705 11.5659Z" fill="#127FFF"/>
<path d="M38.4534 2.87594C38.9852 2.87594 39.4788 2.79485 39.9578 2.66851C38.0032 1.74165 35.9265 1.03354 33.7578 0.578125C34.0044 0.784617 34.2448 0.998182 34.4744 1.22777C35.5375 2.29088 36.95 2.87594 38.4534 2.87594Z" fill="#127FFF"/>
<path d="M33.6934 35.9886L33.7736 34.9457L33.1442 34.8203L29.4297 38.5348L32.9386 41.4582C33.2974 39.6507 33.5525 37.8239 33.6934 35.9886Z" fill="#127FFF"/>
<path d="M36.684 21.2212V13.497H34.471C30.2846 13.497 26.093 12.5527 22.3083 10.7617L21.5978 11.2959C20.1622 12.3712 19.3047 14.0849 19.3047 15.8797V21.2212C19.3047 26.012 23.2026 29.9108 27.9943 29.9108C32.7861 29.9108 36.684 26.012 36.684 21.2212ZM23.1668 18.3246C22.634 18.3246 22.2012 17.8918 22.2012 17.3591C22.2012 16.8259 22.634 16.3936 23.1668 16.3936C23.6995 16.3936 24.1323 16.8259 24.1323 17.3591C24.1323 17.8918 23.6995 18.3246 23.1668 18.3246ZM27.9943 27.0143C25.8644 27.0143 24.1323 25.2822 24.1323 23.1522H26.0633C26.0633 24.2172 26.9294 25.0832 27.9943 25.0832C29.0593 25.0832 29.9254 24.2172 29.9254 23.1522H31.8564C31.8564 25.2822 30.1243 27.0143 27.9943 27.0143ZM32.8219 18.3246C32.2892 18.3246 31.8564 17.8918 31.8564 17.3591C31.8564 16.8259 32.2892 16.3936 32.8219 16.3936C33.3547 16.3936 33.7874 16.8259 33.7874 17.3591C33.7874 17.8918 33.3547 18.3246 32.8219 18.3246Z" fill="#127FFF"/>
<path d="M40.5482 18.3243C40.5482 17.0669 39.7383 16.0053 38.6172 15.6055V21.0422C39.7383 20.6433 40.5482 19.5812 40.5482 18.3243Z" fill="#127FFF"/>
<path d="M15.4415 36.3047L13.5298 36.687C11.2801 37.1368 9.64844 39.1277 9.64844 41.4208V49.1082C10.8525 50.1548 12.1405 51.1061 13.5105 51.9373V46.0989L13.6119 45.8953C14.8093 43.5018 15.4415 40.8221 15.4415 38.1466V36.3047Z" fill="#127FFF"/>
<path d="M28.2113 44.3945H27.786L26.1016 51.1329C26.673 52.4421 27.3094 53.7216 27.9987 54.9728C28.6879 53.7216 29.3234 52.443 29.8957 51.1329L28.2113 44.3945Z" fill="#127FFF"/>
<path d="M38.6216 35.9165L35.6826 35.3281L35.6208 36.1371C35.0886 43.0513 33.0302 49.8505 29.6797 55.9255C33.57 55.694 37.2468 54.6639 40.5535 52.9983V46.5504C39.2896 43.9447 38.6225 41.043 38.6225 38.1464V35.9165H38.6216Z" fill="#127FFF"/>
<path d="M55.996 27.9802C55.996 18.1968 50.9482 9.57455 43.3254 4.56641C42.8988 7.86463 41.2431 10.8701 38.6166 12.9954V13.595C40.8169 14.0438 42.4787 15.9933 42.4787 18.325C42.4787 20.7148 40.7282 22.6911 38.4446 23.0725C37.9255 26.0124 36.1981 28.5365 33.7891 30.1121V32.9827L42.8389 34.7921C45.9872 35.4215 48.2718 38.2101 48.2718 41.4192V47.2594C53.0523 42.2343 55.996 35.4465 55.996 27.9802Z" fill="#127FFF"/>
<path d="M42.4586 36.687L40.5469 36.3047V38.1476C40.5469 40.823 41.1791 43.5027 42.3765 45.8953L42.4779 46.0989V51.9373C43.8479 51.1061 45.1359 50.1548 46.34 49.1082V41.4208C46.34 39.1277 44.7083 37.1368 42.4586 36.687Z" fill="#127FFF"/>
<path d="M20.3153 35.3281L17.3763 35.9155V38.1445C17.3763 41.0411 16.7093 43.9428 15.4453 46.5485V52.9964C18.7511 54.6616 22.4279 55.6931 26.3192 55.9236C22.9677 49.8486 20.9093 43.0494 20.378 36.1352L20.3153 35.3281Z" fill="#127FFF"/>
<path d="M13.1571 34.7928L22.2069 32.9834V30.1128C19.7978 28.5382 18.0714 26.0131 17.5514 23.0732C15.2677 22.6918 13.5172 20.7155 13.5172 18.3258V7.80078C13.5172 5.91218 14.2984 4.17915 15.5595 2.90625C6.34752 7.4967 0 17.009 0 27.9809C0 35.4472 2.9437 42.235 7.72414 47.2602V41.4199C7.72414 38.2108 10.0088 35.4222 13.1571 34.7928Z" fill="#127FFF"/>
<path d="M15.4453 14.4869C16.1049 13.9876 16.8917 13.6623 17.7521 13.5562C18.233 12.0556 19.1589 10.7111 20.4407 9.74933L21.0451 9.29627L18.7167 3.08594C16.7823 3.81338 15.4453 5.68029 15.4453 7.79896V14.4869Z" fill="#127FFF"/>
<path d="M17.3763 21.0439V15.8802C17.3763 15.7868 17.39 15.6949 17.3928 15.6016C16.2633 15.9962 15.4453 17.0621 15.4453 18.3251C15.4453 19.582 16.2553 20.6441 17.3763 21.0439Z" fill="#127FFF"/>
</g>
<defs>
<clipPath id="clip0_1522_23893">
<rect width="56" height="56" fill="white"/>
</clipPath>
</defs>
</svg>
