<svg width="100" height="100" viewBox="0 0 100 100" fill="none" xmlns="http://www.w3.org/2000/svg">
<rect width="100" height="100" rx="16" fill="#4169E1"/>
<path d="M64.4355 58.9545C63.7068 59.0569 60.143 58.9545 59.958 58.9545C59.0367 58.9662 58.1479 58.6144 57.4843 57.9753C56.7329 57.2522 56.0611 56.4552 55.3267 55.698C55.1095 55.4682 54.8744 55.2559 54.6236 55.0633C54.0372 54.6107 53.4565 54.7132 53.1804 55.4049C52.9647 56.1523 52.8142 56.9171 52.7307 57.6906C52.6823 58.3908 52.2382 58.8292 51.4526 58.8776C50.9658 58.9032 50.4791 58.9118 49.998 58.9004C48.2448 58.8892 46.5193 58.4629 44.9625 57.6564C43.2782 56.7179 41.8106 55.4346 40.6558 53.8905C38.7571 51.4653 37.2399 48.8009 35.885 46.0541C35.8138 45.9174 34.4247 42.9627 34.3906 42.8233C34.2653 42.3564 34.3906 41.9095 34.7749 41.7558C35.0197 41.6619 39.5969 41.7558 39.6737 41.7558C40.014 41.7529 40.3464 41.8583 40.6227 42.0569C40.8991 42.2554 41.1051 42.5368 41.2108 42.8603C42.057 45.0268 43.2154 47.0579 44.6494 48.8892C44.8501 49.1341 45.085 49.3488 45.3468 49.5268C45.7197 49.7801 46.0727 49.6919 46.2264 49.2621C46.4085 48.6657 46.5156 48.0489 46.5452 47.4261C46.5708 46.1907 46.5452 45.3766 46.4769 44.144C46.4313 43.3527 46.1524 42.6582 44.9853 42.4361C44.6266 42.3735 44.5953 42.0775 44.8259 41.7814C45.307 41.1666 45.9645 41.0698 46.7018 41.0328C47.8005 40.9702 48.8993 41.0129 49.998 41.0328H50.2371C50.7153 41.0311 51.1924 41.0797 51.6604 41.178C51.937 41.2339 52.1882 41.3778 52.3765 41.5881C52.5647 41.7984 52.68 42.0639 52.7051 42.3451C52.7613 42.6568 52.7851 42.9735 52.7762 43.2901C52.7477 44.6393 52.6823 45.9857 52.668 47.335C52.6549 47.8692 52.7037 48.4032 52.8132 48.9262C52.9698 49.6435 53.4622 49.8228 53.9518 49.3048C54.5858 48.635 55.1672 47.9175 55.691 47.1585C56.6172 45.7752 57.3813 44.29 57.9683 42.7322C58.2871 41.9323 58.5376 41.7558 59.3915 41.7558H64.2477C64.5364 41.7508 64.8243 41.7891 65.1016 41.8697C65.1998 41.8955 65.2916 41.9413 65.3712 42.0042C65.4509 42.0671 65.5166 42.1458 65.5645 42.2353C65.6123 42.3248 65.6411 42.4232 65.6492 42.5244C65.6572 42.6256 65.6443 42.7273 65.6111 42.8233C65.372 43.8879 64.797 44.7959 64.1879 45.6698C63.2001 47.0703 62.1583 48.4337 61.1478 49.8115C61.02 49.9942 60.9031 50.1843 60.7977 50.3808C60.4163 51.0668 60.4447 51.451 60.9969 52.0232C61.8794 52.9284 62.8216 53.7795 63.6727 54.7132C64.2976 55.3919 64.8615 56.1244 65.3578 56.9021C65.9812 57.8671 65.5969 58.7894 64.4355 58.9545Z" fill="white"/>
</svg>
