<svg width="100" height="100" viewBox="0 0 100 100" fill="none" xmlns="http://www.w3.org/2000/svg">
<rect width="100" height="100" rx="16" fill="#29A71A"/>
<g clip-path="url(#clip0_1500_24711)">
<path d="M50 38C43.3832 38 38 43.3828 38 50C38 52.3281 38.6676 54.5727 39.9348 56.5219L38.0648 60.8852C37.9359 61.1852 38.0031 61.5344 38.2344 61.7656C38.3875 61.9188 38.5922 62 38.8 62C38.9063 62 39.0137 61.9789 39.1152 61.9352L43.4785 60.0648C45.4273 61.3328 47.6719 62 50 62C56.6172 62 62 56.6172 62 50C62 43.3828 56.6172 38 50 38ZM56.1594 54.2953C56.1594 54.2953 55.1617 55.575 54.4406 55.8742C52.6078 56.6328 50.0203 55.8742 47.0727 52.9273C44.1258 49.9797 43.3668 47.3922 44.1258 45.5594C44.425 44.8375 45.7047 43.8406 45.7047 43.8406C46.0516 43.5703 46.5906 43.6039 46.9016 43.9148L48.3492 45.3625C48.6602 45.6734 48.6602 46.1828 48.3492 46.4938L47.4406 47.4016C47.4406 47.4016 47.0727 48.5063 49.2828 50.7172C51.493 52.9273 52.5984 52.5594 52.5984 52.5594L53.5063 51.6508C53.8172 51.3398 54.3266 51.3398 54.6375 51.6508L56.0852 53.0984C56.3961 53.4094 56.4297 53.9477 56.1594 54.2953Z" fill="white"/>
</g>
<defs>
<clipPath id="clip0_1500_24711">
<rect width="24" height="24" fill="white" transform="translate(38 38)"/>
</clipPath>
</defs>
</svg>
