<svg width="57" height="56" viewBox="0 0 57 56" fill="none" xmlns="http://www.w3.org/2000/svg">
<g clip-path="url(#clip0_1522_23959)">
<path d="M38.9531 17.5586V22.9953C40.0742 22.5955 40.8842 21.5333 40.8842 20.2765C40.8842 19.0191 40.0742 17.9584 38.9531 17.5586Z" fill="#127FFF"/>
<path d="M47.233 33.2365C43.7693 31.3653 41.4465 27.9318 40.9765 24.0391C40.3485 24.5393 39.6041 24.8877 38.7805 25.0258C38.2614 27.9657 36.5341 30.4898 34.125 32.0654V34.9737L40.9765 36.6865C43.4973 36.6544 45.8658 35.3481 47.233 33.2365Z" fill="#127FFF"/>
<path d="M38.8768 38.15L34.0742 36.9492L33.6641 45.9835L38.0725 43.779L38.8768 38.15Z" fill="#127FFF"/>
<path d="M21.8764 47.5781L16.8287 45.0544L15.9103 38.6211L12.6809 39.4282C10.5269 39.968 9.02344 41.8934 9.02344 44.1129V48.2503C11.9337 51.0271 15.4384 53.1831 19.3264 54.5088L18.5966 50.8579L21.8764 47.5781Z" fill="#127FFF"/>
<path d="M11.7736 37.7039C10.0868 36.9133 8.62769 35.6493 7.64568 34.0129L6.66413 32.3765L7.68056 31.9409C11.43 30.3333 13.8532 26.6575 13.8532 22.5781V12.5523C13.8532 8.21505 15.7786 4.32799 18.8081 1.67188C8.04546 5.57826 0.335938 15.9057 0.335938 28.0006C0.335938 34.9506 2.88692 41.3123 7.09456 46.212V44.1094C7.09456 41.1595 9.00249 38.602 11.7736 37.7039Z" fill="#127FFF"/>
<path d="M37.0199 23.1759V19.063C34.8475 18.3328 33.0075 16.8614 31.8303 14.8945C28.1488 17.1221 23.9595 18.305 19.6406 18.3417V23.1759C19.6406 27.9677 23.5395 31.8656 28.3303 31.8656C33.1211 31.8656 37.0199 27.9677 37.0199 23.1759ZM33.1579 19.3138C33.6906 19.3138 34.1234 19.7466 34.1234 20.2794C34.1234 20.8121 33.6906 21.2449 33.1579 21.2449C32.6251 21.2449 32.1923 20.8121 32.1923 20.2794C32.1923 19.7466 32.6251 19.3138 33.1579 19.3138ZM23.5027 21.2449C22.97 21.2449 22.5372 20.8121 22.5372 20.2794C22.5372 19.7466 22.97 19.3138 23.5027 19.3138C24.0354 19.3138 24.4682 19.7466 24.4682 20.2794C24.4682 20.8121 24.0354 21.2449 23.5027 21.2449ZM24.4682 26.0725H26.3992C26.3992 27.1375 27.2653 28.0035 28.3303 28.0035C29.3953 28.0035 30.2613 27.1375 30.2613 26.0725H32.1923C32.1923 28.2025 30.4603 29.9345 28.3303 29.9345C26.2003 29.9345 24.4682 28.2025 24.4682 26.0725Z" fill="#127FFF"/>
<path d="M15.7812 16.4388C16.3451 16.0121 16.9947 15.6925 17.7123 15.5468V13.5172H19.6433V16.4062C23.9349 16.3666 28.0859 15.0956 31.659 12.7139L32.5689 12.1067L33.2086 13.3871C34.0228 15.0136 35.3792 16.2738 37.0217 16.9885V13.5172H38.9527V15.5459C39.6703 15.6925 40.3199 16.0112 40.8838 16.4378V12.5517C40.8838 5.63093 35.2528 0 28.332 0C21.4112 0 15.7812 5.63093 15.7812 12.5517V16.4388Z" fill="#127FFF"/>
<path d="M17.7123 17.5586C16.5912 17.9584 15.7812 19.0205 15.7812 20.2774C15.7812 21.5343 16.5912 22.5964 17.7123 22.9962V17.5586Z" fill="#127FFF"/>
<path d="M23.0018 45.9835L22.5917 36.9492L17.7891 38.15L18.5933 43.779L23.0018 45.9835Z" fill="#127FFF"/>
<path d="M9.42969 33.2365C10.7969 35.349 13.1654 36.6544 15.6862 36.6865L22.5377 34.9737V32.0654C20.1286 30.4908 18.4022 27.9657 17.8822 25.0258C17.0577 24.8877 16.3132 24.5393 15.6862 24.0391C15.2162 27.9318 12.8934 31.3644 9.42969 33.2365Z" fill="#127FFF"/>
<path d="M24.4688 33.0586V35.7053L24.4947 36.272C25.0915 36.7382 26.5002 37.6585 28.3308 37.6585C30.1808 37.6585 31.5767 36.741 32.167 36.2757L32.1929 35.7053V33.0586C30.9935 33.5291 29.6942 33.7964 28.3308 33.7964C26.9674 33.7964 25.6681 33.5291 24.4688 33.0586Z" fill="#127FFF"/>
<path d="M33.2266 55.5657C33.9083 55.445 34.5834 55.306 35.2467 55.1372L35.9756 51.4925L33.5231 49.0391L33.2266 55.5657Z" fill="#127FFF"/>
<path d="M43.9846 39.4282L40.7552 38.6211L39.8368 45.0544L34.7891 47.5781L38.0689 50.8579L37.3391 54.5088C41.2271 53.184 44.7309 51.0281 47.642 48.2503V44.1129C47.6411 41.8924 46.1377 39.9671 43.9846 39.4282Z" fill="#127FFF"/>
<path d="M20.6875 51.4915L21.4164 55.1362C22.0797 55.305 22.7557 55.4441 23.4365 55.5648L23.14 49.0391L20.6875 51.4915Z" fill="#127FFF"/>
<path d="M56.3315 28.0006C56.3315 15.9057 48.622 5.57826 37.8594 1.67188C40.8889 4.32799 42.8143 8.21505 42.8143 12.5523V22.5781C42.8143 26.6584 45.2375 30.3333 48.9878 31.9409L50.0042 32.3766L49.0227 34.0129C48.0407 35.6493 46.5816 36.9123 44.8947 37.7039C47.6649 38.602 49.5729 41.1596 49.5729 44.1103V46.213C53.7805 41.3123 56.3315 34.9506 56.3315 28.0006Z" fill="#127FFF"/>
<path d="M24.6016 38.6211L24.7326 41.5176H31.9278L32.0589 38.6211C31.1155 39.1232 29.8487 39.5866 28.3293 39.5866C26.8093 39.5866 25.5459 39.1222 24.6016 38.6211Z" fill="#127FFF"/>
<path d="M25.0872 49.2435H31.5809L31.6681 47.3125H25L25.0872 49.2435Z" fill="#127FFF"/>
<path d="M25.2596 53.1068H31.4025L31.4902 51.1758H25.1719L25.2596 53.1068Z" fill="#127FFF"/>
<path d="M25.3883 55.8442C26.3576 55.9465 27.3396 56.0007 28.3349 56.0007C29.3301 56.0007 30.3121 55.9465 31.2814 55.8442L31.3182 55.0352H25.3516L25.3883 55.8442Z" fill="#127FFF"/>
<path d="M24.908 45.3803H31.7515L31.8392 43.4492H24.8203L24.908 45.3803Z" fill="#127FFF"/>
</g>
<defs>
<clipPath id="clip0_1522_23959">
<rect width="56" height="56" fill="white" transform="translate(0.335938)"/>
</clipPath>
</defs>
</svg>
