<svg width="59" height="58" viewBox="0 0 59 58" fill="none" xmlns="http://www.w3.org/2000/svg">
<path d="M5.42969 29.0026C5.42969 15.6554 16.2467 4.83594 29.5964 4.83594C42.9412 4.83594 53.763 15.6554 53.763 29.0026C53.763 42.3499 42.9412 53.1693 29.5964 53.1693C16.2467 53.1693 5.42969 42.3499 5.42969 29.0026Z" fill="#FC3F1D"/>
<path d="M32.6907 18.5296H30.4577C26.3639 18.5296 24.2106 20.6031 24.2106 23.6602C24.2106 27.116 25.6993 28.7352 28.7564 30.8111L31.2818 32.5124L24.0246 43.356H18.6016L25.1145 33.6555C21.3686 30.9706 19.2661 28.363 19.2661 23.9526C19.2661 18.4233 23.1207 14.6484 30.4311 14.6484H37.6884V43.3294H32.6907V18.5296Z" fill="white"/>
</svg>
